<svg xmlns="http://www.w3.org/2000/svg" viewBox="0 0 406.39 161.33"><defs><style>.cls-1{fill:#fdfdfd;}.cls-2{fill:#fff;}</style></defs><title>Recurso 1</title><g id="Capa_2" data-name="Capa 2"><g id="Capa_7" data-name="Capa 7"><path class="cls-1" d="M98.73,80.83A53.19,53.19,0,0,0,58.2,55.4v50.72A53.45,53.45,0,0,0,98.73,80.83Z"/><path class="cls-1" d="M48.21,106.12V55.4A53.19,53.19,0,0,0,7.68,80.83,53.45,53.45,0,0,0,48.21,106.12Z"/><path class="cls-1" d="M48.21,45.18V0A53.23,53.23,0,0,0,2.79,70,63.35,63.35,0,0,1,48.21,45.18Z"/><path class="cls-1" d="M103.62,70A53.23,53.23,0,0,0,58.2,0V45.18A63.35,63.35,0,0,1,103.62,70Z"/><path class="cls-1" d="M58.2,116.16v45.17a53.22,53.22,0,0,0,45.42-70A63.38,63.38,0,0,1,58.2,116.16Z"/><path class="cls-1" d="M2.79,91.34a53.22,53.22,0,0,0,45.42,70V116.16A63.38,63.38,0,0,1,2.79,91.34Z"/><path class="cls-2" d="M136.81,43.4a11.34,11.34,0,0,1-11.46-11.62A11.41,11.41,0,0,1,137,20.09a11.76,11.76,0,0,1,8.82,3.51l-2.54,2.93a9,9,0,0,0-6.31-2.8c-4.32,0-7.44,3.54-7.44,8s3.12,8,7.44,8c2.77,0,4.54-1.13,6.47-2.93L146,39.41A11.64,11.64,0,0,1,136.81,43.4Z"/><path class="cls-2" d="M166.48,24H153.74v5.86H165v3.54h-11.3v6h12.91V43H149.78V20.48h16.7Z"/><path class="cls-2" d="M186.76,20.48h3.9V43h-3.32L174.92,27V43H171V20.48h3.67l12.07,15.58Z"/><path class="cls-2" d="M205.65,43h-4V24.15h-7.14V20.48H212.8v3.67h-7.15Z"/><path class="cls-2" d="M231.11,43l-5.53-7.85h-5V43h-4V20.48h10.05c5.18,0,8.36,2.73,8.36,7.15a6.74,6.74,0,0,1-5.37,6.85L235.78,43Zm-4.73-18.93h-5.76v7.57h5.8c2.83,0,4.63-1.48,4.63-3.8C231.05,25.37,229.31,24.08,226.38,24.08Z"/><path class="cls-2" d="M250.36,43.4a11.66,11.66,0,1,1,.07-23.31,11.44,11.44,0,0,1,11.74,11.62A11.55,11.55,0,0,1,250.36,43.4Zm0-19.67c-4.47,0-7.6,3.57-7.6,8a7.73,7.73,0,0,0,7.67,8c4.47,0,7.59-3.57,7.59-8A7.73,7.73,0,0,0,250.36,23.73Z"/><path class="cls-2" d="M284.38,43H276V20.48h8.4c7.08,0,12,4.86,12,11.23S291.46,43,284.38,43Zm0-18.93h-4.44V39.41h4.44c4.73,0,7.82-3.19,7.82-7.63A7.41,7.41,0,0,0,284.38,24.08Z"/><path class="cls-2" d="M317.54,24H304.79v5.86h11.29v3.54H304.79v6H317.7V43H300.83V20.48h16.71Z"/><path class="cls-2" d="M134.83,68.29h-4.47v7.24h-4V53h8.89c5.24,0,8.56,3,8.56,7.56C143.85,65.65,139.79,68.29,134.83,68.29ZM135,56.6h-4.6v8.12H135c3,0,4.86-1.64,4.86-4.06C139.82,58,137.93,56.6,135,56.6Z"/><path class="cls-2" d="M162,75.53l-5.53-7.85h-5v7.85h-4V53h10c5.19,0,8.37,2.74,8.37,7.15A6.74,6.74,0,0,1,160.62,67l6.08,8.53ZM157.3,56.6h-5.76v7.57h5.79c2.84,0,4.64-1.48,4.64-3.8C162,57.89,160.23,56.6,157.3,56.6Z"/><path class="cls-2" d="M181.28,75.92a11.66,11.66,0,1,1,11.81-11.69A11.45,11.45,0,0,1,181.28,75.92Zm0-19.67c-4.47,0-7.6,3.57-7.6,8a7.73,7.73,0,0,0,7.66,8c4.48,0,7.6-3.57,7.6-8A7.73,7.73,0,0,0,181.28,56.25Z"/><path class="cls-2" d="M206,75.53h-8.41V53H206c7.08,0,12,4.86,12,11.23S213.05,75.53,206,75.53Zm0-18.93h-4.45V71.93H206c4.73,0,7.82-3.19,7.82-7.63A7.41,7.41,0,0,0,206,56.6Z"/><path class="cls-2" d="M241.34,65.78c0,6.73-3.8,10.11-9.69,10.11s-9.59-3.38-9.59-9.92V53h4V65.81c0,4.19,2.16,6.44,5.69,6.44s5.67-2.12,5.67-6.28V53h4Z"/><path class="cls-2" d="M256.92,75.92a11.66,11.66,0,0,1,.16-23.31,11.76,11.76,0,0,1,8.82,3.51l-2.54,2.93a9,9,0,0,0-6.31-2.8c-4.32,0-7.44,3.54-7.44,8s3.12,8,7.44,8c2.76,0,4.54-1.13,6.47-2.93l2.54,2.58A11.65,11.65,0,0,1,256.92,75.92Z"/><path class="cls-2" d="M280.35,75.92a11.66,11.66,0,0,1,.16-23.31,11.76,11.76,0,0,1,8.82,3.51l-2.54,2.93a9,9,0,0,0-6.31-2.8c-4.32,0-7.44,3.54-7.44,8s3.12,8,7.44,8c2.77,0,4.54-1.13,6.47-2.93l2.54,2.58A11.64,11.64,0,0,1,280.35,75.92Z"/><path class="cls-2" d="M297.5,53V75.53h-4V53Z"/><path class="cls-2" d="M314,75.92a11.66,11.66,0,1,1,11.81-11.69A11.45,11.45,0,0,1,314,75.92Zm0-19.67c-4.47,0-7.6,3.57-7.6,8a7.73,7.73,0,0,0,7.67,8c4.47,0,7.59-3.57,7.59-8A7.73,7.73,0,0,0,314,56.25Zm-1.35-5.12L316,45.85l3.54,1.58-3.92,3.7Z"/><path class="cls-2" d="M346,53h3.89V75.53h-3.32l-12.42-16v16h-3.9V53h3.68L346,68.58Z"/><path class="cls-2" d="M373.08,75.53h-8.41V53h8.41c7.08,0,12,4.86,12,11.23S380.16,75.53,373.08,75.53Zm0-18.93h-4.45V71.93h4.45c4.73,0,7.82-3.19,7.82-7.63A7.41,7.41,0,0,0,373.08,56.6Z"/><path class="cls-2" d="M406.23,56.54H393.48V62.4h11.3v3.54h-11.3v6h12.91v3.54H389.52V53h16.71Z"/><path class="cls-2" d="M136.81,108.57a11.65,11.65,0,0,1,.16-23.3,11.75,11.75,0,0,1,8.82,3.5l-2.54,2.93a9,9,0,0,0-6.31-2.8c-4.32,0-7.44,3.54-7.44,8s3.12,8,7.44,8c2.77,0,4.54-1.12,6.47-2.92l2.54,2.57A11.61,11.61,0,0,1,136.81,108.57Z"/><path class="cls-2" d="M160.53,108.57a11.65,11.65,0,1,1,11.81-11.68A11.45,11.45,0,0,1,160.53,108.57Zm0-19.67c-4.48,0-7.6,3.58-7.6,8a7.72,7.72,0,0,0,7.66,8c4.48,0,7.6-3.57,7.6-8A7.73,7.73,0,0,0,160.53,88.9Z"/><path class="cls-2" d="M192.55,85.65h3.9v22.53h-3.32l-12.42-16v16h-3.9V85.65h3.67l12.07,15.58Z"/><path class="cls-2" d="M211.45,108.18h-4V89.32h-7.15V85.65h18.28v3.67h-7.14Z"/><path class="cls-2" d="M239.16,89.19H226.41v5.86h11.3v3.54h-11.3v6h12.91v3.54H222.46V85.65h16.7Z"/><path class="cls-2" d="M259.44,85.65h3.89v22.53H260l-12.43-16v16H243.7V85.65h3.67l12.07,15.58Z"/><path class="cls-2" d="M273,85.65v22.53h-4V85.65Z"/><path class="cls-2" d="M287.08,108.18h-8.4V85.65h8.4c7.09,0,12,4.86,12,11.24S294.17,108.18,287.08,108.18Zm0-18.92h-4.44v15.32h4.44c4.74,0,7.83-3.19,7.83-7.63A7.4,7.4,0,0,0,287.08,89.26Z"/><path class="cls-2" d="M314.28,108.57a11.65,11.65,0,1,1,11.81-11.68A11.45,11.45,0,0,1,314.28,108.57Zm0-19.67c-4.47,0-7.59,3.58-7.59,8a7.72,7.72,0,0,0,7.66,8c4.47,0,7.59-3.57,7.59-8A7.73,7.73,0,0,0,314.28,88.9Z"/><path class="cls-2" d="M339.26,95.12c4.76,1.15,7.24,2.86,7.24,6.63,0,4.25-3.31,6.76-8.05,6.76a13.88,13.88,0,0,1-9.4-3.61l2.39-2.83a10.34,10.34,0,0,0,7.11,2.93c2.45,0,4-1.13,4-2.87s-.9-2.51-5.08-3.47c-4.8-1.16-7.5-2.58-7.5-6.76,0-3.93,3.21-6.57,7.69-6.57a12.54,12.54,0,0,1,8.18,2.83l-2.13,3a10.2,10.2,0,0,0-6.11-2.32c-2.32,0-3.68,1.19-3.68,2.7C333.91,93.31,335,94.09,339.26,95.12Z"/><path class="cls-2" d="M134.75,140.81h-8.4V118.27h8.4c7.08,0,12,4.86,12,11.24S141.83,140.81,134.75,140.81Zm0-18.93h-4.44V137.2h4.44c4.73,0,7.82-3.19,7.82-7.63A7.4,7.4,0,0,0,134.75,121.88Z"/><path class="cls-2" d="M155.38,118.27v22.54h-4V118.27Z"/><path class="cls-2" d="M171.76,141.19c-7,0-11.68-5-11.68-11.62a11.48,11.48,0,0,1,11.62-11.68,12.18,12.18,0,0,1,8.66,3l-2.51,3a8.85,8.85,0,0,0-6.31-2.42c-4.16,0-7.31,3.61-7.31,8,0,4.66,3.06,8.08,7.66,8.08a9.18,9.18,0,0,0,5.44-1.71v-4.22h-5.76v-3.44h9.59v9.46A14.37,14.37,0,0,1,171.76,141.19Z"/><path class="cls-2" d="M190.17,118.27v22.54h-4V118.27Z"/><path class="cls-2" d="M205.4,140.81h-4V121.94h-7.15v-3.67h18.28v3.67H205.4Z"/><path class="cls-2" d="M238,140.81h-4.19l-2.28-5.44H220.85l-2.32,5.44h-4.06l9.92-22.7h3.67Zm-11.81-18-3.87,9h7.76Z"/><path class="cls-2" d="M241.51,118.27h4V137.2h11.84v3.61h-15.8Z"/><path class="cls-2" d="M277.82,121.81H265.07v5.86h11.3v3.54h-11.3v6H278v3.55H261.11V118.27h16.71Z"/><path class="cls-2" d="M291,127.74c4.77,1.15,7.25,2.86,7.25,6.63,0,4.25-3.32,6.76-8.05,6.76a13.84,13.84,0,0,1-9.4-3.61l2.38-2.83a10.38,10.38,0,0,0,7.11,2.93c2.45,0,4-1.13,4-2.87s-.9-2.51-5.09-3.47c-4.79-1.16-7.5-2.58-7.5-6.76,0-3.93,3.22-6.57,7.7-6.57a12.49,12.49,0,0,1,8.17,2.83l-2.12,3a10.21,10.21,0,0,0-6.12-2.32c-2.32,0-3.67,1.19-3.67,2.7C285.7,125.93,286.73,126.71,291,127.74Z"/></g></g></svg>