<svg xmlns="http://www.w3.org/2000/svg" viewBox="0 0 253.42 86.41"><defs><style>.cls-1,.cls-2{fill:#fff;}.cls-1{fill-rule:evenodd;}</style></defs><title>Recurso 1</title><g id="Capa_2" data-name="Capa 2"><g id="Capa_5" data-name="Capa 5"><path class="cls-1" d="M18.47,30.33,14.26,14.44l15.4,4.4A24.46,24.46,0,0,0,18.47,30.33ZM17.55,49,3.47,40.81l14-7.9A24.92,24.92,0,0,0,17.55,49ZM30,62.92l-15.7,4.26L18.62,51.6A24.45,24.45,0,0,0,30,62.92Zm18.48.94L40.32,78.1,32.51,64a24.1,24.1,0,0,0,15.93-.11ZM62.17,51.29l4.21,15.89L51,62.77A24.39,24.39,0,0,0,62.17,51.29Zm.92-18.71,14.08,8.23-14,7.9a24.86,24.86,0,0,0,1.28-7.9A24.61,24.61,0,0,0,63.09,32.58ZM50.68,18.7l15.7-4.26L62,30A24.36,24.36,0,0,0,50.68,18.7ZM40.32,3.52l7.8,14.13a23.93,23.93,0,0,0-15.93.11Z"/><path class="cls-1" d="M52.05,33.25a1.23,1.23,0,0,0,.55.14,1,1,0,0,0,.74-1,1.18,1.18,0,0,0-.59-1.24c-.39-.14-1.63-.66-1.58-1.73a2.74,2.74,0,0,1,.44-1.31c.11-.22-.28-.67,0-1.12s1-.7,1.2-1c0,.29.41.89.31,1.37a1.1,1.1,0,0,1-.72.86c-.29.09-.54,0-.72.4a1.22,1.22,0,0,0,.47,1.76c.94.52,1.65.54,1.65,2A1.44,1.44,0,0,1,52.63,34a2.13,2.13,0,0,1-.64-.12c-.3,1.29-1.44,1.47-1.27,1.93.35,1,1.48.05,1.48.05l-.13,3.27H49.85s0-.38,0-.71.33-.42.57-.42.42,0,.7-.06a3,3,0,0,0,0-1.08s-1.78,1.18-2.61-.09-.71-2.1-.44-2.53a1.85,1.85,0,0,1,1.63-.58A2,2,0,0,0,48,32.3c-.5,0-1.8.29-2.31-.87a2.4,2.4,0,0,1,0-1.63,4.59,4.59,0,0,1-2.23-3.54c0-.45-.57-.4-.57-.4V24.68a1.58,1.58,0,0,1,.6-.1c.34,0,.69.51.68,1.07a2.69,2.69,0,0,0,.51,1.76,3.33,3.33,0,0,0,1.71.74c.61.16,1-.08,1.81-.78a2.23,2.23,0,0,1-1.34,0l-.69-1.72a12.66,12.66,0,0,0,1.26-.43,1.2,1.2,0,0,0,.69-.94,2.51,2.51,0,0,1,1.66.67,3.34,3.34,0,0,0,1.29.65,30.83,30.83,0,0,0-1.19,4.25c-.07,1,.16,1.3.66,1.6S52,32.27,52.05,33.25Zm-3.15,0a2.34,2.34,0,0,0-1.34-.34c-.84,0-2.07.54-2.07,1.34a2,2,0,0,0,.28,1.17s-1,.25-1.17,0V34.5A.66.66,0,0,0,44,34H43.4v2.4l3.54.07s0-1.28.65-1.24C47.47,34.55,47.33,33.57,48.9,33.26ZM42.21,28.5a2,2,0,0,1,.5-.12c.2,0,.41.29.45.7s.16.75.66.82S45.2,30,45.2,30a3,3,0,0,0,.08,1.21,6.38,6.38,0,0,1-2-.67c-.27-.24-.61-.79-1.1-.64Z"/><path class="cls-1" d="M34.85,52.13a1.12,1.12,0,0,0,.55.15,1,1,0,0,0,.74-1,1.17,1.17,0,0,0-.59-1.24c-.39-.14-1.63-.66-1.58-1.73a2.64,2.64,0,0,1,.44-1.31c.11-.22-.28-.67.05-1.12s1-.71,1.2-1c.05.29.41.89.31,1.37a1.1,1.1,0,0,1-.72.86c-.29.09-.54,0-.72.4A1.22,1.22,0,0,0,35,49.32c.94.51,1.64.54,1.64,2a1.43,1.43,0,0,1-1.21,1.53,2.13,2.13,0,0,1-.64-.12c-.3,1.29-1.44,1.47-1.27,1.93.35,1,1.48.05,1.48.05L34.87,58H32.65s0-.37,0-.7.33-.42.57-.42.43,0,.7-.06a3.08,3.08,0,0,0,0-1.08s-1.79,1.18-2.62-.09-.71-2.11-.44-2.53a1.85,1.85,0,0,1,1.63-.58,2,2,0,0,0-1.64-1.31c-.5,0-1.8.28-2.31-.87a2.46,2.46,0,0,1,0-1.63,4.6,4.6,0,0,1-2.22-3.55c-.05-.44-.57-.39-.57-.39V43.57a1.52,1.52,0,0,1,.6-.1c.34,0,.69.5.68,1.06a2.7,2.7,0,0,0,.51,1.77A3.33,3.33,0,0,0,29.2,47c.61.16,1-.08,1.81-.78a2.23,2.23,0,0,1-1.34,0L29,44.56a12,12,0,0,0,1.26-.42,1.2,1.2,0,0,0,.69-.94,2.51,2.51,0,0,1,1.66.67,3.5,3.5,0,0,0,1.29.65,30.83,30.83,0,0,0-1.19,4.25c-.07,1,.16,1.3.66,1.6S34.81,51.16,34.85,52.13Zm-3.15,0a2.31,2.31,0,0,0-1.34-.35c-.85,0-2.07.55-2.07,1.35a2.08,2.08,0,0,0,.28,1.17s-1,.25-1.18,0v-.88a.65.65,0,0,0-.64-.54H26.2v2.4l3.54.07s0-1.29.65-1.24C30.27,53.44,30.13,52.46,31.7,52.15ZM25,47.38a2.26,2.26,0,0,1,.49-.11c.21,0,.41.29.46.7s.16.74.66.82S28,48.9,28,48.9a3,3,0,0,0,.08,1.21,6.1,6.1,0,0,1-2-.68c-.27-.23-.61-.78-1.1-.63Z"/><path class="cls-1" d="M0,40.81C0,18.27,18.05,0,40.32,0S80.64,18.27,80.64,40.81s-18,40.81-40.32,40.81S0,63.35,0,40.81Zm1.57,0c0-21.66,17.35-39.22,38.75-39.22S79.07,19.15,79.07,40.81,61.72,80,40.32,80,1.57,62.47,1.57,40.81Z"/><path class="cls-1" d="M27.59,34.58v3.93h4.09V36.27a1,1,0,1,1,2,0v2.24h4.08V34.58l-2-2.06V29.6l.71-.72v-3.4H34.85v1.57H33.5V24.7H31.87v2.35H30.51V25.48H28.88v3.4l.71.72v2.92Zm12.73,6.23h-22a22.13,22.13,0,0,1,22-22.26Z"/><path class="cls-1" d="M42.39,52.26v3.93h4.08V54a1,1,0,1,1,2,0v2.24h4.09V52.26l-2-2.06V47.28l.71-.72v-3.4H49.66v1.57H48.3V42.38H46.67v2.35H45.32V43.16H43.69v3.4l.72.72V50.2ZM62.31,40.81a22.12,22.12,0,0,1-22,22.25V40.81Z"/></g><g id="Logo"><g id="Logo_UPCT" data-name="Logo UPCT"><path class="cls-1" d="M107.87,80.62V59.76h-2.69V68.3a4.5,4.5,0,0,0-4.05-2.16c-3.51,0-6,3.1-6,7.42s2.45,7.35,6,7.35c2,0,3.22-.82,4.26-2.86v2.57Zm-2.57-7.24c0,3.07-1.54,5.23-3.72,5.23s-3.76-2.07-3.76-5.08,1.6-5.11,3.82-5.11S105.3,70.48,105.3,73.38Z"/><path class="cls-1" d="M123,72.29c0-3.55-2.42-6.14-5.82-6.14-3.81,0-6.41,3-6.41,7.23,0,4.76,2.86,7.56,7.71,7.56a11,11,0,0,0,3.72-.59V78.2a9.69,9.69,0,0,1-3.34.59c-3.16,0-5.08-1.57-5.31-4.41h9.18A7.64,7.64,0,0,0,123,72.29ZM120.44,72a3.16,3.16,0,0,1,0,.59H113.5c.2-2.7,1.56-4.34,3.57-4.34S120.44,69.88,120.44,72Z"/><path class="cls-1" d="M145.63,80V77.43a8.92,8.92,0,0,1-3.78.85c-3.61,0-6.09-3.27-6.09-8.06s2.42-8.12,6-8.12a7.63,7.63,0,0,1,3.66.91V60.38a7.3,7.3,0,0,0-3.84-.91c-5.17,0-8.77,4.46-8.77,10.81s3.6,10.63,8.83,10.63A8.7,8.7,0,0,0,145.63,80Z"/><path class="cls-1" d="M159.24,80.41V70.93c0-2-.51-3.31-1.81-4.05a6.72,6.72,0,0,0-3.33-.74A10.75,10.75,0,0,0,149,67.38v2.25a9.45,9.45,0,0,1,4.75-1.36c2,0,2.9.83,2.9,2.81v.64a17.48,17.48,0,0,0-4.49.42c-2.75.74-4.29,2.42-4.29,4.67,0,2.72,2.16,4.13,6.24,4.13A25.8,25.8,0,0,0,159.24,80.41Zm-2.6-1.71a11.62,11.62,0,0,1-2.31.2c-2.63,0-3.78-.7-3.78-2.3,0-2.16,1.86-3.1,6.09-3.1Z"/><path class="cls-1" d="M171.52,69.07V66.44a5.39,5.39,0,0,0-1.51-.21c-2.13,0-3.63,1.15-4.46,3.43V66.47H163V80.62h2.69V73.74c0-3,1.65-5,4.13-5A4.45,4.45,0,0,1,171.52,69.07Z"/><path class="cls-1" d="M180.52,80.56V78.37a8,8,0,0,1-2,.24c-1.71,0-2.33-.68-2.33-2.6V68.68h4V66.47h-4V62.1l-2.69,1.62v12c0,3.73,1.24,5.17,4.4,5.17A10.24,10.24,0,0,0,180.52,80.56Z"/><path class="cls-1" d="M193.6,80.41V70.93c0-2-.5-3.31-1.8-4.05a6.76,6.76,0,0,0-3.34-.74,10.78,10.78,0,0,0-5.11,1.24v2.25a9.49,9.49,0,0,1,4.76-1.36c2,0,2.89.83,2.89,2.81v.64a17.53,17.53,0,0,0-4.49.42c-2.75.74-4.28,2.42-4.28,4.67,0,2.72,2.15,4.13,6.23,4.13A25.8,25.8,0,0,0,193.6,80.41ZM191,78.7a11.58,11.58,0,0,1-2.3.2c-2.63,0-3.78-.7-3.78-2.3,0-2.16,1.86-3.1,6.08-3.1Z"/><path class="cls-1" d="M209.34,78.58V66.47H206.8v2.86a4.29,4.29,0,0,0-4.35-3.16c-3.45,0-5.93,3.08-5.93,7.34,0,4.09,2.6,7.11,6.14,7.11a4.07,4.07,0,0,0,4-2.63v.77c0,4.06-1.21,5.52-4.46,5.52a7.49,7.49,0,0,1-4.43-1.35v2.18a8.58,8.58,0,0,0,4.9,1.3A7.12,7.12,0,0,0,207.24,85C208.78,83.78,209.34,82.05,209.34,78.58Zm-2.57-5c0,2.82-1.54,4.77-3.72,4.77s-3.81-2-3.81-4.86,1.56-4.91,3.63-4.91C205.14,68.54,206.77,70.61,206.77,73.54Z"/><path class="cls-1" d="M224.49,72.29c0-3.55-2.42-6.14-5.82-6.14-3.81,0-6.41,3-6.41,7.23,0,4.76,2.86,7.56,7.71,7.56a11,11,0,0,0,3.72-.59V78.2a9.69,9.69,0,0,1-3.34.59c-3.16,0-5.08-1.57-5.32-4.41h9.19A7.64,7.64,0,0,0,224.49,72.29ZM221.92,72a3.16,3.16,0,0,1,0,.59H215c.2-2.7,1.56-4.34,3.57-4.34S221.92,69.88,221.92,72Z"/><path class="cls-1" d="M239.22,80.62V72.35a8.07,8.07,0,0,0-.71-4,4.55,4.55,0,0,0-4.14-2.16c-2,0-3.36,1-4.4,3.08V66.47H227.4V80.62h2.69V74.27c0-2.1.18-3.17.68-4a3.24,3.24,0,0,1,2.87-1.63A2.75,2.75,0,0,1,236.12,70a5.36,5.36,0,0,1,.41,2.66v8Z"/><path class="cls-1" d="M253.42,80.41V70.93c0-2-.51-3.31-1.8-4.05a6.76,6.76,0,0,0-3.34-.74,10.75,10.75,0,0,0-5.11,1.24v2.25a9.45,9.45,0,0,1,4.75-1.36c2,0,2.9.83,2.9,2.81v.64a17.48,17.48,0,0,0-4.49.42c-2.75.74-4.29,2.42-4.29,4.67,0,2.72,2.16,4.13,6.24,4.13A25.8,25.8,0,0,0,253.42,80.41Zm-2.6-1.71a11.62,11.62,0,0,1-2.31.2c-2.63,0-3.78-.7-3.78-2.3,0-2.16,1.86-3.1,6.09-3.1Z"/><path class="cls-1" d="M108.2,37a6,6,0,0,0-2.92-5.49,10.86,10.86,0,0,0-5.17-1h-4V51.42H99V43.65H100a10.83,10.83,0,0,0,5.2-1A6.27,6.27,0,0,0,108.2,37Zm-2.78.06a3.89,3.89,0,0,1-1.8,3.55,7.37,7.37,0,0,1-3.63.62H99V33h1.47C103.83,33,105.42,34.29,105.42,37.09Z"/><path class="cls-1" d="M123.35,44.33c0-4.46-2.63-7.41-6.62-7.41-3.81,0-6.62,3.13-6.62,7.38,0,4.4,2.72,7.47,6.65,7.47S123.35,48.67,123.35,44.33Zm-2.72-.12c0,3.1-1.51,5.23-3.75,5.23s-4-2.15-4-5.23,1.59-5,3.9-5S120.63,41.23,120.63,44.21Z"/><rect class="cls-2" x="126.26" y="30.57" width="2.69" height="20.85"/><path class="cls-1" d="M135.64,33.31a1.74,1.74,0,0,0-.38-1.21,1.61,1.61,0,0,0-1.18-.38,1.71,1.71,0,0,0-1.21.38,1.57,1.57,0,0,0-.39,1.18,1.66,1.66,0,0,0,.39,1.21,1.54,1.54,0,0,0,1.18.39,1.7,1.7,0,0,0,1.21-.39A1.6,1.6,0,0,0,135.64,33.31Zm-.23,18.11V37.27h-2.69V51.42Z"/><path class="cls-1" d="M146.15,51.36V49.18a8.49,8.49,0,0,1-2,.23c-1.71,0-2.33-.68-2.33-2.6V39.49h4V37.27h-4V32.9l-2.69,1.62v12c0,3.72,1.24,5.17,4.4,5.17A9.82,9.82,0,0,0,146.15,51.36Z"/><path class="cls-1" d="M160.26,30.3h-3.57l-4.2,4.81h2.13Zm-.08,12.79A5.78,5.78,0,0,0,154.36,37c-3.82,0-6.41,3-6.41,7.23,0,4.76,2.86,7.57,7.71,7.57a10.79,10.79,0,0,0,3.72-.6V49a9.69,9.69,0,0,1-3.34.59c-3.16,0-5.08-1.57-5.32-4.4h9.19A7.76,7.76,0,0,0,160.18,43.09Zm-2.57-.26a3.22,3.22,0,0,1,0,.59h-6.92c.21-2.71,1.57-4.35,3.58-4.35S157.61,40.68,157.61,42.83Z"/><path class="cls-1" d="M172.72,50.86V48.61h0a5.39,5.39,0,0,1-2.86.83c-2.78,0-4.79-2.15-4.79-5.17a4.76,4.76,0,0,1,7.53-4.13h0v-2.4a7.29,7.29,0,0,0-3.51-.8,6.86,6.86,0,0,0-6.86,7.21c0,4.44,2.93,7.6,7.06,7.6A6.76,6.76,0,0,0,172.72,50.86Z"/><path class="cls-1" d="M187.8,51.42V43.15a8.07,8.07,0,0,0-.71-4A4.54,4.54,0,0,0,183,36.94c-2,0-3.37,1-4.41,3.08V37.27H176V51.42h2.68V45.07a7.91,7.91,0,0,1,.68-4,3.24,3.24,0,0,1,2.87-1.62,2.73,2.73,0,0,1,2.48,1.41,5.3,5.3,0,0,1,.41,2.66v8Z"/><path class="cls-1" d="M194.49,33.31a1.69,1.69,0,0,0-.38-1.21,1.6,1.6,0,0,0-1.18-.38,1.72,1.72,0,0,0-1.21.38,1.57,1.57,0,0,0-.39,1.18,1.66,1.66,0,0,0,.39,1.21,1.56,1.56,0,0,0,1.18.39,1.68,1.68,0,0,0,1.21-.39A1.56,1.56,0,0,0,194.49,33.31Zm-.23,18.11V37.27h-2.69V51.42Z"/><path class="cls-1" d="M207.66,50.86V48.61h0a5.39,5.39,0,0,1-2.86.83c-2.78,0-4.79-2.15-4.79-5.17a4.76,4.76,0,0,1,7.53-4.13h0v-2.4a7.29,7.29,0,0,0-3.51-.8,6.86,6.86,0,0,0-6.85,7.21c0,4.44,2.92,7.6,7.06,7.6A6.72,6.72,0,0,0,207.66,50.86Z"/><path class="cls-1" d="M221.35,51.21V41.73c0-2-.5-3.31-1.8-4a6.71,6.71,0,0,0-3.34-.74,10.63,10.63,0,0,0-5.1,1.25v2.24a9.45,9.45,0,0,1,4.75-1.36c2,0,2.9.83,2.9,2.81v.65a18,18,0,0,0-4.49.41c-2.75.74-4.29,2.42-4.29,4.67,0,2.72,2.16,4.14,6.23,4.14A25.63,25.63,0,0,0,221.35,51.21Zm-2.59-1.71a11.61,11.61,0,0,1-2.31.21c-2.63,0-3.78-.71-3.78-2.31,0-2.15,1.86-3.1,6.09-3.1Z"/><path class="cls-1" d="M109.38,15V1.37h-2.8V15c0,3.63-1.09,5.05-3.84,5.05C100.17,20,99,18.38,99,15V1.37H96.15V15c0,2.56.44,4.13,1.51,5.4a6.31,6.31,0,0,0,5.11,2.19,6.21,6.21,0,0,0,5.67-2.87A9.54,9.54,0,0,0,109.38,15Z"/><path class="cls-1" d="M125.32,22.22V14a8.07,8.07,0,0,0-.71-4,4.55,4.55,0,0,0-4.13-2.15c-2,0-3.37,1-4.4,3.07V8.07h-2.57V22.22h2.68V15.87a7.91,7.91,0,0,1,.68-4,3.24,3.24,0,0,1,2.87-1.62,2.72,2.72,0,0,1,2.48,1.42,5.36,5.36,0,0,1,.41,2.66v7.94Z"/><path class="cls-1" d="M132,4.11a1.7,1.7,0,0,0-.39-1.21,1.6,1.6,0,0,0-1.18-.38,1.74,1.74,0,0,0-1.21.38,1.57,1.57,0,0,0-.38,1.18,1.66,1.66,0,0,0,.38,1.21,1.57,1.57,0,0,0,1.18.39,1.68,1.68,0,0,0,1.21-.39A1.54,1.54,0,0,0,132,4.11Zm-.24,18.11V8.07h-2.69V22.22Z"/><path class="cls-1" d="M147.52,8.07h-3l-3.75,11.44L137.09,8.07h-3l2.27,6.56a78.58,78.58,0,0,0,3.13,7.59H142c.86-1.71,2.57-5.76,3.43-8.18Z"/><path class="cls-1" d="M161.3,13.89c0-3.55-2.42-6.14-5.82-6.14-3.81,0-6.41,3-6.41,7.24,0,4.75,2.87,7.56,7.71,7.56A11,11,0,0,0,160.5,22V19.8a9.65,9.65,0,0,1-3.34.59c-3.15,0-5.08-1.56-5.31-4.4H161A8.14,8.14,0,0,0,161.3,13.89Zm-2.57-.26a3.22,3.22,0,0,1,0,.59h-6.91c.21-2.7,1.56-4.35,3.57-4.35S158.73,11.49,158.73,13.63Z"/><path class="cls-1" d="M172.72,10.67V8a5.68,5.68,0,0,0-1.5-.2c-2.13,0-3.64,1.15-4.46,3.42V8.07h-2.54V22.22h2.68V15.34c0-3,1.66-5,4.14-5A4.61,4.61,0,0,1,172.72,10.67Z"/><path class="cls-1" d="M183.76,18.5c0-1.8-1.12-3.07-3.69-4.16-2.81-1.19-3.37-1.6-3.37-2.63s1-1.78,2.57-1.78a13.94,13.94,0,0,1,4,.62V8.34A15.76,15.76,0,0,0,179,7.75c-3.08,0-5,1.47-5,3.84,0,1.8,1.06,2.92,4,4.16,2.37,1,3,1.54,3,2.63,0,1.3-1,2-3,2a12.61,12.61,0,0,1-3.84-.62V22a16.71,16.71,0,0,0,4.41.59C181.78,22.55,183.76,21,183.76,18.5Z"/><path class="cls-1" d="M189.66,4.11a1.74,1.74,0,0,0-.38-1.21,1.64,1.64,0,0,0-1.19-.38,1.74,1.74,0,0,0-1.21.38,1.61,1.61,0,0,0-.38,1.18,1.71,1.71,0,0,0,.38,1.21,1.57,1.57,0,0,0,1.18.39,1.71,1.71,0,0,0,1.22-.39A1.58,1.58,0,0,0,189.66,4.11Zm-.24,18.11V8.07h-2.69V22.22Z"/><path class="cls-1" d="M205.1,22.22V1.37h-2.69V9.9a4.5,4.5,0,0,0-4-2.15c-3.51,0-6,3.1-6,7.41s2.45,7.36,6,7.36c2,0,3.23-.83,4.26-2.87v2.57ZM202.53,15c0,3.07-1.53,5.22-3.72,5.22s-3.75-2.06-3.75-5.08S196.65,10,198.87,10,202.53,12.09,202.53,15Z"/><path class="cls-1" d="M219.3,22V12.53c0-2-.51-3.31-1.81-4a6.59,6.59,0,0,0-3.33-.74A10.66,10.66,0,0,0,209.05,9v2.24a9.54,9.54,0,0,1,4.75-1.35c2,0,2.9.82,2.9,2.8v.65a17.48,17.48,0,0,0-4.49.42c-2.75.73-4.29,2.42-4.29,4.66,0,2.72,2.16,4.14,6.24,4.14A26.56,26.56,0,0,0,219.3,22Zm-2.6-1.72a11.61,11.61,0,0,1-2.31.21c-2.63,0-3.78-.71-3.78-2.31,0-2.15,1.86-3.1,6.09-3.1Z"/><path class="cls-1" d="M235,22.22V1.37h-2.69V9.9a4.51,4.51,0,0,0-4-2.15c-3.52,0-6,3.1-6,7.41s2.46,7.36,6,7.36c2,0,3.22-.83,4.25-2.87v2.57ZM232.41,15c0,3.07-1.54,5.22-3.73,5.22s-3.75-2.06-3.75-5.08,1.6-5.11,3.81-5.11S232.41,12.09,232.41,15Z"/></g></g></g></svg>