<svg xmlns="http://www.w3.org/2000/svg" viewBox="0 0 596.46 596"><defs><style>.cls-1{fill:#018da3;}.cls-2{fill:#fff;}.cls-3{fill:#935f82;}.cls-4{fill:#ff8702;}.cls-5{fill:#00ca8d;}.cls-6{fill:#ff4662;}.cls-7{fill:#fff154;}</style></defs><title>Recurso 6</title><g id="Capa_2" data-name="Capa 2"><g id="Roulette_6" data-name="Roulette 6"><path class="cls-1" d="M301.06,300H595A296.52,296.52,0,0,1,448,554.49Z"/><path class="cls-2" d="M593.45,301.46a295,295,0,0,1-144.9,251l-144.89-251H593.45m3-3h-298l149,258.08a298,298,0,0,0,149-258.08Z"/><path class="cls-3" d="M300.85,296.71l147-254.52a296.49,296.49,0,0,1,147,254.52Z"/><path class="cls-2" d="M448.35,44.25a295,295,0,0,1,144.89,251H303.45l144.9-251m-1.09-4.11-149,258.07h298a298,298,0,0,0-149-258.07Z"/><path class="cls-4" d="M151.67,40.48a296.48,296.48,0,0,1,293.9,0L298.62,295Z"/><path class="cls-2" d="M298.62,3a295.39,295.39,0,0,1,144.9,38L298.62,292,153.73,41A295.32,295.32,0,0,1,298.62,3m0-3a298.07,298.07,0,0,0-149,39.92L298.62,298l149-258.08A298,298,0,0,0,298.62,0Z"/><path class="cls-5" d="M1.5,296.45a296.49,296.49,0,0,1,147-254.52l147,254.52Z"/><path class="cls-2" d="M147.91,44,292.8,295H3A295,295,0,0,1,147.91,44M149,39.88A298,298,0,0,0,0,298H298L149,39.88Z"/><path class="cls-6" d="M148.7,554.42A296.49,296.49,0,0,1,1.75,299.9h293.9Z"/><path class="cls-2" d="M3.27,301.4H293.05l-144.89,251A295,295,0,0,1,3.27,301.4m-3-3a298,298,0,0,0,149,258.07l149-258.07Z"/><path class="cls-7" d="M298.62,594.5a296.87,296.87,0,0,1-147-39L298.62,301l147,254.52A296.87,296.87,0,0,1,298.62,594.5Z"/><path class="cls-2" d="M298.62,304l144.9,251a295,295,0,0,1-289.79,0L298.62,304m0-6-149,258.08a298,298,0,0,0,298,0L298.62,298Z"/></g></g></svg>