<svg xmlns="http://www.w3.org/2000/svg" viewBox="0 0 596.2 597"><defs><style>.cls-1{fill:#018da3;}.cls-2{fill:#fff;}.cls-3{fill:#935f82;}.cls-4{fill:#ff8702;}.cls-5{fill:#00ca8d;}.cls-6{fill:#ff4662;}.cls-7{fill:#fff154;}.cls-8{fill:#e55f98;}</style></defs><title>Recurso 7</title><g id="Capa_2" data-name="Capa 2"><g id="Roulette_7" data-name="Roulette 7"><path class="cls-1" d="M300.87,298.68H594.25A296.52,296.52,0,0,1,483.79,528.06Z"/><path class="cls-2" d="M592.74,300.18A295,295,0,0,1,484,525.94L304,300.18H592.74m3-3h-298l185.79,233a298,298,0,0,0,112.21-233Z"/><path class="cls-3" d="M301.31,295.66,484.23,66.29A296.45,296.45,0,0,1,594.7,295.66Z"/><path class="cls-2" d="M484.46,68.4A295,295,0,0,1,593.18,294.16H304.43l180-225.76M484,64.17l-185.79,233h298A298,298,0,0,0,484,64.17Z"/><path class="cls-4" d="M233.11,8.6A296.46,296.46,0,0,1,481.32,65.26L298.39,294.63Z"/><path class="cls-2" d="M297.63,3A295.06,295.06,0,0,1,479.21,65.51l-180,225.75L234.91,9.74A295.81,295.81,0,0,1,297.63,3h0m0-3a298.13,298.13,0,0,0-66.32,7.47L297.63,298,483.43,65A297.95,297.95,0,0,0,297.63,0Z"/><path class="cls-5" d="M30.43,168.54A296.52,296.52,0,0,1,229.48,9.8l65.27,286Z"/><path class="cls-2" d="M228.35,11.61,292.6,293.13,32.44,167.84A295,295,0,0,1,228.35,11.61M230.61,8A298,298,0,0,0,28.42,169.24L296.91,298.53,230.61,8Z"/><path class="cls-6" d="M30.22,425.53a296.46,296.46,0,0,1,0-254.59l264.32,127.3Z"/><path class="cls-2" d="M30.93,172.94l260.16,125.3L30.93,423.52a295,295,0,0,1,0-250.58m-1.42-4a298,298,0,0,0,0,258.6L298,298.24,29.51,168.93Z"/><path class="cls-7" d="M230.5,586.31a296.44,296.44,0,0,1-199-158.74L295.79,300.29Z"/><path class="cls-2" d="M293.63,303,229.38,584.51A295,295,0,0,1,33.47,428.27L293.63,303m4.31-5.41L29.45,426.88A298,298,0,0,0,231.63,588.11l66.31-290.53Z"/><path class="cls-8" d="M298.64,595.5a297.26,297.26,0,0,1-64.52-7.1l65.29-286L482.33,531.75A296.44,296.44,0,0,1,298.64,595.5Z"/><path class="cls-2" d="M300.18,305.74l180,225.76a295,295,0,0,1-244.3,55.75l64.26-281.51M298.64,299,232.32,589.53A298,298,0,0,0,484.44,532L298.64,299Z"/></g></g></svg>