<svg xmlns="http://www.w3.org/2000/svg" viewBox="0 0 596 596"><defs><style>.cls-1{fill:#00ca8d;}.cls-2{fill:#fff;}.cls-3{fill:#ff8702;}</style></defs><title>Recurso 2</title><g id="Capa_2" data-name="Capa 2"><g id="Roulette_2" data-name="Roulette 2"><path class="cls-1" d="M298,595a292.17,292.17,0,0,1-115.14-23.49A301.06,301.06,0,0,1,24.49,413.14,292.09,292.09,0,0,1,1,299H595a292.09,292.09,0,0,1-23.49,114.14A301.06,301.06,0,0,1,413.14,571.51,292.17,292.17,0,0,1,298,595Z"/><path class="cls-2" d="M594,300a291.22,291.22,0,0,1-23.4,112.75A300.13,300.13,0,0,1,412.75,570.59a292.94,292.94,0,0,1-229.5,0A300.13,300.13,0,0,1,25.41,412.75,291.22,291.22,0,0,1,2,300H594m2-2H0C0,461.48,134.52,596,298,596S596,461.48,596,298Z"/><path class="cls-3" d="M1.5,296.5A291.81,291.81,0,0,1,25,183.06,300.66,300.66,0,0,1,183.06,25a293.41,293.41,0,0,1,229.88,0A300.66,300.66,0,0,1,571.05,183.06,291.81,291.81,0,0,1,594.5,296.5Z"/><path class="cls-2" d="M298,3A290.18,290.18,0,0,1,412.35,26.33,299.13,299.13,0,0,1,569.67,183.65,290.14,290.14,0,0,1,593,295H3A289.94,289.94,0,0,1,26.33,183.65,299.13,299.13,0,0,1,183.65,26.33,290.21,290.21,0,0,1,298,3m0-3C134.52,0,0,134.52,0,298H596C596,134.52,461.48,0,298,0Z"/></g></g></svg>