<svg xmlns="http://www.w3.org/2000/svg" viewBox="0 0 595.11 596.28"><defs><style>.cls-1{fill:#00ca8d;}.cls-2{fill:#fff;}.cls-3{fill:#ff8702;}.cls-4{fill:#ff4662;}</style></defs><title>Recurso 3</title><g id="Capa_2" data-name="Capa 2"><g id="Roulette_3" data-name="Roulette 3"><path class="cls-1" d="M296.67,594.78A295,295,0,0,1,41.86,448.22l256-147.81,256,147.82C501.07,538.66,402.65,594.78,296.67,594.78Z"/><path class="cls-2" d="M297.88,302.14l254,146.63A292.83,292.83,0,0,1,443,555a299.85,299.85,0,0,1-146.32,38.24A293.52,293.52,0,0,1,43.92,448.77l254-146.63m0-3.46-258.07,149A298,298,0,0,0,148.88,556.75a294.7,294.7,0,0,0,147.79,39.53C400,596.28,501,542.83,556,447.68l-258.08-149Z"/><path class="cls-3" d="M298.61,297.13V1.5A291.85,291.85,0,0,1,412.06,25a300.59,300.59,0,0,1,158.1,158.11A291.7,291.7,0,0,1,593.61,298a296.84,296.84,0,0,1-39,147Z"/><path class="cls-2" d="M300.12,3A290,290,0,0,1,411.47,26.33,299.07,299.07,0,0,1,568.78,183.65,290.21,290.21,0,0,1,592.11,298a295.45,295.45,0,0,1-38,144.9l-254-146.63V3m-3-3V298L555.19,447a298,298,0,0,0,39.92-149c0-163.48-134.52-298-298-298Z"/><path class="cls-4" d="M40.07,445.78a291.81,291.81,0,0,1-36.41-110,300.61,300.61,0,0,1,57.87-216,291.74,291.74,0,0,1,87.82-77.79A297,297,0,0,1,296.1,2.34V298Z"/><path class="cls-2" d="M294.6,3.85V297.1l-254,146.62A290.14,290.14,0,0,1,5.15,335.63,299,299,0,0,1,62.73,120.74,290.31,290.31,0,0,1,150.1,43.35,295.39,295.39,0,0,1,294.6,3.85m3-3a298,298,0,0,0-149,39.92C7,122.49-42.22,306.25,39.52,447.83l258.08-149V.83Z"/></g></g></svg>