<svg xmlns="http://www.w3.org/2000/svg" viewBox="0 0 596 596"><defs><style>.cls-1{fill:#337d39;}.cls-2{fill:#fff;}.cls-3{fill:#018da3;}.cls-4{fill:#935f82;}.cls-5{fill:#ff8702;}.cls-6{fill:#00ca8d;}.cls-7{fill:#ff4662;}.cls-8{fill:#fff154;}.cls-9{fill:#e55f98;}</style></defs><title>Recurso 8</title><g id="Capa_2" data-name="Capa 2"><g id="Roulette_8" data-name="Roulette 8"><path class="cls-1" d="M301.39,299.86H594.26A296.45,296.45,0,0,1,508.48,507Z"/><path class="cls-2" d="M592.75,301.36a295,295,0,0,1-84.27,203.46L305,301.36H592.75m3-3h-298L508.49,509.08a298.09,298.09,0,0,0,87.28-210.72Z"/><path class="cls-3" d="M301.62,296.5,508.71,89.41A296.51,296.51,0,0,1,594.5,296.5Z"/><path class="cls-2" d="M508.71,91.54A295,295,0,0,1,593,295H305.24L508.71,91.54m0-4.26L298,298H596A298,298,0,0,0,508.72,87.28Z"/><path class="cls-4" d="M299.5,1.5A296.47,296.47,0,0,1,506.59,87.29L299.5,294.38Z"/><path class="cls-2" d="M301,3A295.09,295.09,0,0,1,504.46,87.29L301,290.76V3m-3-3V298L508.72,87.28A298,298,0,0,0,298,0Z"/><path class="cls-5" d="M89.41,87.29A296.51,296.51,0,0,1,296.5,1.5V294.38Z"/><path class="cls-2" d="M295,3V290.76L91.54,87.29A295.09,295.09,0,0,1,295,3m3-3A298,298,0,0,0,87.28,87.28L298,298V0Z"/><path class="cls-6" d="M1.5,296.5A296.51,296.51,0,0,1,87.29,89.41L294.38,296.5Z"/><path class="cls-2" d="M87.29,91.54,290.76,295H3A295,295,0,0,1,87.29,91.54m0-4.26A298,298,0,0,0,0,298H298L87.28,87.28Z"/><path class="cls-7" d="M87.29,506.59A296.47,296.47,0,0,1,1.5,299.5H294.38Z"/><path class="cls-2" d="M290.76,301,87.29,504.46A295,295,0,0,1,3,301H290.76m7.24-3H0A298,298,0,0,0,87.28,508.72L298,298Z"/><path class="cls-8" d="M296.5,594.5A296.51,296.51,0,0,1,89.41,508.71L296.5,301.62Z"/><path class="cls-2" d="M295,305.24V593A295.09,295.09,0,0,1,91.54,508.71L295,305.24m3-7.24L87.28,508.72A298,298,0,0,0,298,596V298Z"/><path class="cls-9" d="M299.5,301.62,506.59,508.71A296.47,296.47,0,0,1,299.5,594.5Z"/><path class="cls-2" d="M301,305.24,504.46,508.71A295.09,295.09,0,0,1,301,593V305.24M298,298V596a298,298,0,0,0,210.72-87.28L298,298Z"/></g></g></svg>