<svg xmlns="http://www.w3.org/2000/svg" viewBox="0 0 596 596"><defs><style>.cls-1{fill:#00ca8d;}.cls-2{fill:#fff;}</style></defs><title>Recurso 1</title><g id="Capa_2" data-name="Capa 2"><g id="Roulette_1" data-name="Roulette 1"><path class="cls-1" d="M298,594.5A296.5,296.5,0,0,1,88.34,88.34,296.5,296.5,0,0,1,507.66,507.66,294.56,294.56,0,0,1,298,594.5Z"/><path class="cls-2" d="M298,3A295.08,295.08,0,0,1,412.83,569.82,295.08,295.08,0,0,1,183.17,26.18,293.2,293.2,0,0,1,298,3m0-3C133.42,0,0,133.42,0,298S133.42,596,298,596,596,462.58,596,298,462.58,0,298,0Z"/></g></g></svg>