<svg xmlns="http://www.w3.org/2000/svg" viewBox="0 0 596.12 596"><defs><style>.cls-1{fill:#fff154;}.cls-2{fill:#fff;}.cls-3{fill:#935f82;}.cls-4{fill:#ff8702;}.cls-5{fill:#00ca8d;}.cls-6{fill:#ff4662;}</style></defs><title>Recurso 5</title><g id="Capa_2" data-name="Capa 2"><g id="Roulette_5" data-name="Roulette 5"><path class="cls-1" d="M300.06,299.5H594.5a296.54,296.54,0,0,1-203.45,280Z"/><path class="cls-2" d="M593,301A295,295,0,0,1,392,577.63L302.13,301H593m3-3H298l92.09,283.42A298,298,0,0,0,596,298Z"/><path class="cls-3" d="M300.19,296.45l91-280a296.51,296.51,0,0,1,203.45,280Z"/><path class="cls-2" d="M392.13,18.33A295,295,0,0,1,593.11,295H302.25L392.13,18.33m-1.92-3.79L298.12,298h298A298,298,0,0,0,390.21,14.54Z"/><path class="cls-4" d="M59.13,122.51a296.52,296.52,0,0,1,329.19-107l-91,280Z"/><path class="cls-2" d="M298.12,3a294.64,294.64,0,0,1,88.3,13.52L296.54,293.14l-235.3-171A295,295,0,0,1,298.12,3m0-3A298,298,0,0,0,57,122.84L298.12,298,390.21,14.58A298.07,298.07,0,0,0,298.12,0Z"/><path class="cls-5" d="M57.25,470.93a296.5,296.5,0,0,1,0-346.13l238.2,173.06Z"/><path class="cls-2" d="M57.59,126.9l235.31,171-235.31,171a295,295,0,0,1,0-341.92m-.68-4.2a298,298,0,0,0,0,350.32L298,297.86,56.91,122.7Z"/><path class="cls-6" d="M298.12,594.5a296.47,296.47,0,0,1-239-121l238.2-173.07,91,280A296.12,296.12,0,0,1,298.12,594.5Z"/><path class="cls-2" d="M296.54,302.85l89.88,276.62A295,295,0,0,1,61.23,473.81l235.31-171m1.58-4.85L57,473.16A298,298,0,0,0,390.2,581.41L298.12,298Z"/></g></g></svg>