<svg xmlns="http://www.w3.org/2000/svg" viewBox="0 0 596.66 596.27"><defs><style>.cls-1{fill:#ff4662;}.cls-2{fill:#fff;}.cls-3{fill:#00ca8d;}.cls-4{fill:#ff8702;}.cls-5{fill:#935f82;}</style></defs><title>Recurso 4</title><g id="Capa_2" data-name="Capa 2"><g id="Roulette_4" data-name="Roulette 4"><path class="cls-1" d="M300.16,299.77h295a296.51,296.51,0,0,1-295,295Z"/><path class="cls-2" d="M593.65,301.27a295,295,0,0,1-292,292v-292h292m3-3h-298v298a298,298,0,0,0,298-298Z"/><path class="cls-3" d="M300.16,296.77V1.78a296.54,296.54,0,0,1,295,295Z"/><path class="cls-2" d="M301.66,3.29a295,295,0,0,1,292,292h-292V3.29m-3-3v298h298a298,298,0,0,0-298-298Z"/><path class="cls-4" d="M2.08,296.5a296.56,296.56,0,0,1,295-295v295Z"/><path class="cls-2" d="M295.58,3V295H3.59a295,295,0,0,1,292-292m3-3A298,298,0,0,0,.58,298h298V0Z"/><path class="cls-5" d="M296.5,594.45a296.54,296.54,0,0,1-295-295h295Z"/><path class="cls-2" d="M295,301v292A295,295,0,0,1,3,301H295m3-3H0A298,298,0,0,0,298,596V298Z"/></g></g></svg>